<?xml version="1.0" encoding="UTF-8"?>
<svg version="1.1" xmlns="http://www.w3.org/2000/svg" width="432" height="300">
<path d="M0 0 C1.28632324 0.00572021 2.57264648 0.01144043 3.89794922 0.01733398 C22.1484655 0.36052781 35.58974205 7.03499322 48.8125 19.5 C49.27398437 19.14808594 49.73546875 18.79617187 50.2109375 18.43359375 C51.60815999 17.3760123 53.01108328 16.32594254 54.41796875 15.28125 C55.99427629 14.10866233 57.55981456 12.92143389 59.11328125 11.71875 C75.43671951 -0.46371783 93.16954525 -0.79061611 112.8125 0.5 C123.30594516 2.0676769 133.32426384 7.39375743 141.1875 14.4375 C143.50042956 16.73183207 143.50042956 16.73183207 145.66015625 16.36328125 C148.46273669 15.23919726 150.49870655 13.61183816 152.875 11.75 C169.34658889 -0.50486213 186.9256164 -0.902225 206.8125 0.5 C216.58248314 1.93479077 224.94182823 6.73802356 232.8125 12.5 C234.3903125 13.6446875 234.3903125 13.6446875 236 14.8125 C243.48081592 21.96083522 248.80842282 29.96817026 252.8125 39.5 C253.08102783 40.10303955 253.34955566 40.7060791 253.6262207 41.32739258 C256.53245475 48.67570359 256.40627086 56.27751246 256.375 64.0625 C256.37484894 64.77521057 256.37469788 65.48792114 256.37454224 66.222229 C256.30803175 82.13771917 253.03449604 93.87420123 242.8125 106.5 C242.17570312 107.33273438 241.53890625 108.16546875 240.8828125 109.0234375 C231.94834359 119.71108522 217.41813046 127.53421666 203.50146484 128.80151367 C199.82945439 128.93804684 196.17437525 128.95849643 192.5 128.9375 C190.65631836 128.9674707 190.65631836 128.9674707 188.77539062 128.99804688 C172.10642762 128.98925059 157.76880201 123.07945582 145.8125 111.5 C145.37421875 111.85191406 144.9359375 112.20382813 144.484375 112.56640625 C140.51008623 115.66021234 136.41585699 118.48666429 132.125 121.125 C131.23425781 121.67414063 130.34351563 122.22328125 129.42578125 122.7890625 C119.23427099 127.61488033 109.6536598 129.19862928 98.4375 129.0625 C97.16471191 129.05226807 95.89192383 129.04203613 94.58056641 129.03149414 C76.41493595 128.62112248 62.9699601 121.90345093 49.8125 109.5 C49.35101563 109.85191406 48.88953125 110.20382813 48.4140625 110.56640625 C47.01684001 111.6239877 45.61391672 112.67405746 44.20703125 113.71875 C42.63072371 114.89133767 41.06518544 116.07856611 39.51171875 117.28125 C23.18828049 129.46371783 5.45545475 129.79061611 -14.1875 128.5 C-19.5594231 127.69745711 -24.33582077 125.9322742 -29.1875 123.5 C-30.55261719 122.83097656 -30.55261719 122.83097656 -31.9453125 122.1484375 C-46.78932551 114.0228157 -56.12311095 101.29627183 -62.24755859 85.8215332 C-63.33484452 81.97931892 -63.51123231 78.38504129 -63.5234375 74.42578125 C-63.5300943 73.66130173 -63.5367511 72.8968222 -63.54360962 72.10917664 C-63.55369446 70.4963927 -63.55842794 68.88356739 -63.55810547 67.27075195 C-63.56245678 64.83667862 -63.59875687 62.40445373 -63.63671875 59.97070312 C-63.76101403 42.8675628 -58.24270947 30.29215318 -46.46484375 17.75 C-33.59504021 5.03472241 -17.76596922 -0.09119633 0 0 Z " fill="#637FE9" transform="translate(115.1875,85.5)"/>
<path d="M0 0 C1.28632324 0.00572021 2.57264648 0.01144043 3.89794922 0.01733398 C21.56245995 0.34950821 35.01040842 6.55977743 48.015625 18.52734375 C50.48319063 21.23630166 51.56836044 24.07861621 52.8125 27.5 C53.6065625 28.54929687 54.400625 29.59859375 55.21875 30.6796875 C58.06609201 34.57342255 59.33730922 38.43719924 60.5625 43.0625 C60.77003906 43.79146484 60.97757812 44.52042969 61.19140625 45.27148438 C64.8121149 58.24763699 65.52064225 71.74487359 60.8125 84.5 C60.43738281 85.5209375 60.06226563 86.541875 59.67578125 87.59375 C57.87835373 92.17520563 56.07927514 96.41853713 53.125 100.375 C50.67221949 103.27838145 50.67221949 103.27838145 50.0625 106.4375 C46.56191123 115.01394248 35.88572775 120.79830168 27.8125 124.5 C18.62671366 128.04000244 10.24569403 129.18089831 0.4375 129.0625 C-0.83456299 129.05299316 -2.10662598 129.04348633 -3.41723633 129.03369141 C-12.90707609 128.82346767 -20.66491688 127.77259472 -29.1875 123.5 C-30.55261719 122.83097656 -30.55261719 122.83097656 -31.9453125 122.1484375 C-46.78932551 114.0228157 -56.12311095 101.29627183 -62.24755859 85.8215332 C-63.33484452 81.97931892 -63.51123231 78.38504129 -63.5234375 74.42578125 C-63.5300943 73.66130173 -63.5367511 72.8968222 -63.54360962 72.10917664 C-63.55369446 70.4963927 -63.55842794 68.88356739 -63.55810547 67.27075195 C-63.56245678 64.83667862 -63.59875687 62.40445373 -63.63671875 59.97070312 C-63.76101403 42.8675628 -58.24270947 30.29215318 -46.46484375 17.75 C-33.59504021 5.03472241 -17.76596922 -0.09119633 0 0 Z " fill="#F6941B" transform="translate(115.1875,85.5)"/>
<path d="M0 0 C0.75539063 0.55300781 1.51078125 1.10601562 2.2890625 1.67578125 C3.3409375 2.43890625 4.3928125 3.20203125 5.4765625 3.98828125 C12.95737842 11.13661647 18.28498532 19.14395151 22.2890625 28.67578125 C22.55759033 29.2788208 22.82611816 29.88186035 23.1027832 30.50317383 C26.00901725 37.85148484 25.88283336 45.45329371 25.8515625 53.23828125 C25.85141144 53.95099182 25.85126038 54.66370239 25.85110474 55.39801025 C25.78459425 71.31350042 22.51105854 83.04998248 12.2890625 95.67578125 C11.33386719 96.92488281 11.33386719 96.92488281 10.359375 98.19921875 C1.42490609 108.88686647 -13.10530704 116.70999791 -27.02197266 117.97729492 C-30.69398311 118.11382809 -34.34906225 118.13427768 -38.0234375 118.11328125 C-39.86711914 118.14325195 -39.86711914 118.14325195 -41.74804688 118.17382812 C-58.26043656 118.16511446 -71.72370882 112.24432405 -84.2265625 101.703125 C-85.7109375 99.67578125 -85.7109375 99.67578125 -85.64453125 97.17578125 C-84.62487839 94.44533009 -83.46294899 92.90042982 -81.5234375 90.73828125 C-71.4297258 78.25613982 -68.40655468 62.36491248 -69.7109375 46.67578125 C-70.48976157 40.30723275 -71.58006536 33.98981734 -72.7109375 27.67578125 C-73.3709375 27.67578125 -74.0309375 27.67578125 -74.7109375 27.67578125 C-75.0821875 26.70640625 -75.4534375 25.73703125 -75.8359375 24.73828125 C-77.89261713 19.92624136 -80.89382082 13.08433959 -85.7109375 10.67578125 C-85.7109375 9.35578125 -85.7109375 8.03578125 -85.7109375 6.67578125 C-83.63448256 4.81151879 -81.69060338 3.29201144 -79.3984375 1.73828125 C-78.76341309 1.29806641 -78.12838867 0.85785156 -77.47412109 0.40429688 C-54.74531862 -14.98766868 -22.75743252 -15.6751047 0 0 Z " fill="#BFBBBB" transform="translate(345.7109375,96.32421875)"/>
<path d="M0 0 C2.31 0.33 4.62 0.66 7 1 C6.67 4.96 6.34 8.92 6 13 C7.65 13 9.3 13 11 13 C11.33 10.03 11.66 7.06 12 4 C16 3 16 3 19 4 C18.85769192 5.41702513 18.71099254 6.8336096 18.5625 8.25 C18.48128906 9.03890625 18.40007812 9.8278125 18.31640625 10.640625 C18.02365007 12.82364639 17.57935581 14.8773182 17 17 C17.70125 17.0825 18.4025 17.165 19.125 17.25 C23.68044468 18.43837687 26.86849805 20.64219766 29.875 24.25 C31.38434427 27.93950823 31.72238517 31.07054221 31 35 C29.23391635 37.96449755 28.2166928 39.64254099 24.859375 40.62890625 C24.24578125 40.75136719 23.6321875 40.87382812 23 41 C23.6496875 41.69222656 23.6496875 41.69222656 24.3125 42.3984375 C28.31259584 47.08373494 29.87186683 50.46688248 29.453125 56.671875 C28.51274539 61.5034806 26.08772108 64.1097521 22.375 67.1484375 C18.18010868 69.44980149 15.29855527 69.46973316 10.625 69.25 C9.88894531 69.23195313 9.15289062 69.21390625 8.39453125 69.1953125 C6.59578264 69.14859176 4.79771289 69.07686183 3 69 C3.01160156 69.63808594 3.02320312 70.27617187 3.03515625 70.93359375 C3.04417969 71.75988281 3.05320312 72.58617187 3.0625 73.4375 C3.07410156 74.26121094 3.08570312 75.08492188 3.09765625 75.93359375 C3 78 3 78 2 79 C-0.33944736 78.71269945 -2.6739143 78.38063221 -5 78 C-5.26252625 73.66831683 -4.29243536 70.1196377 -3 66 C-5.475 66.495 -5.475 66.495 -8 67 C-8.309375 68.11375 -8.61875 69.2275 -8.9375 70.375 C-10 74 -10 74 -11 76 C-12.98 75.67 -14.96 75.34 -17 75 C-16.67 71.04 -16.34 67.08 -16 63 C-19.96 62.01 -23.92 61.02 -28 60 C-27 55 -27 55 -26 53 C-23.35139573 52.40644386 -20.70802678 52.25790731 -18 52 C-15.80875342 45.84179374 -14.13138587 39.71191897 -12.8125 33.3125 C-12.63525391 32.49716797 -12.45800781 31.68183594 -12.27539062 30.84179688 C-11.36334631 26.48581687 -10.790197 22.47820887 -11 18 C-13.31 17.34 -15.62 16.68 -18 16 C-17.67 13.36 -17.34 10.72 -17 8 C-11.99109914 8.61512818 -6.99367864 9.2717552 -2 10 C-1.34 6.7 -0.68 3.4 0 0 Z " fill="#FEF8F1" transform="translate(113,110)"/>
<path d="M0 0 C6.6 0 13.2 0 20 0 C18.16185966 14.04864399 18.16185966 14.04864399 16 19 C15.63128912 20.65919896 15.28718326 22.3247643 15 24 C16.32 24 17.64 24 19 24 C18.822947 29.40011648 18.822947 29.40011648 18 32 C17.030625 32.433125 16.06125 32.86625 15.0625 33.3125 C11.79436599 34.6520675 11.79436599 34.6520675 11.23046875 37.4765625 C10.91611017 39.4138292 10.64472226 41.35868024 10.421875 43.30859375 C10 46 10 46 8 50 C17.9 50 27.8 50 38 50 C37.47942079 54.68521286 36.92450033 59.37749836 36 64 C18.84 64 1.68 64 -16 64 C-14.78289945 57.91449727 -13.55220995 51.98709553 -12 46 C-13.32 46 -14.64 46 -16 46 C-15.3943662 38.61126761 -15.3943662 38.61126761 -13.75 36.0625 C-11.54461398 34.72351563 -9.54110939 34.34339316 -7 34 C-7.04125 32.7625 -7.0825 31.525 -7.125 30.25 C-7.2049586 27.85124187 -7.1934837 26.37539145 -6.0859375 24.2265625 C-4.51756893 21.01084277 -4.08416732 17.62358452 -3.5 14.125 C-3.26465749 12.73104821 -3.02513125 11.33779576 -2.78125 9.9453125 C-2.6275293 9.02516357 -2.6275293 9.02516357 -2.47070312 8.08642578 C-1.85043467 5.33704081 -0.89128282 2.67384846 0 0 Z " fill="#FCFCFC" transform="translate(296,118)"/>
<path d="M0 0 C0.99 0.33 1.98 0.66 3 1 C3 1.66 3 2.32 3 3 C3.66 3 4.32 3 5 3 C6.60073216 5.34734231 8.06605011 7.67858071 9.5 10.125 C9.90347656 10.79015625 10.30695313 11.4553125 10.72265625 12.140625 C13.01411654 15.99753836 14.75512889 19.65648231 16 24 C16.66 24 17.32 24 18 24 C19.00508801 25.78881736 20.00392736 27.58114696 21 29.375 C21.556875 30.37273437 22.11375 31.37046875 22.6875 32.3984375 C24 35 24 35 24 37 C24.66 37 25.32 37 26 37 C30 43.625 30 43.625 30 47 C26.17839939 46.55039993 24.02336057 45.32320744 20.9375 43.11328125 C17.48817336 41.13130929 13.685518 40.10797343 9.90234375 38.9296875 C7.22693813 38.07269351 4.60838072 37.04335229 2 36 C2 45.57 2 55.14 2 65 C0.68 64.67 -0.64 64.34 -2 64 C-2 63.34 -2 62.68 -2 62 C-2.680625 61.9175 -3.36125 61.835 -4.0625 61.75 C-7.8746907 60.77667472 -10.64070329 59.04192545 -14 57 C-14 56.34 -14 55.68 -14 55 C-14.639375 54.7525 -15.27875 54.505 -15.9375 54.25 C-19.99988351 52.59188428 -23.99724906 50.7964416 -28 49 C-27.43626497 45.37162523 -26.5190066 42.81782787 -24.55078125 39.7265625 C-24.03862061 38.9121167 -23.52645996 38.0976709 -22.9987793 37.25854492 C-22.44230713 36.3894751 -21.88583496 35.52040527 -21.3125 34.625 C-20.13704769 32.75972748 -18.96260704 30.89381714 -17.7890625 29.02734375 C-16.86528809 27.56337158 -16.86528809 27.56337158 -15.92285156 26.06982422 C-12.62639184 20.80704049 -9.40860808 15.49661715 -6.1875 10.1875 C-5.57108643 9.17316895 -4.95467285 8.15883789 -4.31958008 7.11376953 C-2.87893233 4.74298986 -1.43906613 2.37173991 0 0 Z " fill="#BBC7F5" transform="translate(214,103)"/>
<path d="M0 0 C5 2 5 2 10 4 C10 4.66 10 5.32 10 6 C10.95712891 6.27263672 10.95712891 6.27263672 11.93359375 6.55078125 C12.75988281 6.80214844 13.58617187 7.05351562 14.4375 7.3125 C15.26121094 7.55613281 16.08492187 7.79976562 16.93359375 8.05078125 C17.61550781 8.36402344 18.29742187 8.67726562 19 9 C19.33 9.99 19.66 10.98 20 12 C22.10584438 12.80563638 22.10584438 12.80563638 24.5625 13.1875 C25.38878906 13.34605469 26.21507812 13.50460938 27.06640625 13.66796875 C27.70449219 13.77753906 28.34257812 13.88710937 29 14 C29 13.34 29 12.68 29 12 C29.928125 11.731875 30.85625 11.46375 31.8125 11.1875 C35.00388569 9.99855239 35.72211494 9.30000045 38 7 C39.61531877 5.89165941 41.26436961 4.83147415 42.9375 3.8125 C43.79214844 3.28269531 44.64679688 2.75289062 45.52734375 2.20703125 C48 1 48 1 52 1 C51.38854999 4.16646886 50.35088827 6.2119326 48.4453125 8.80078125 C47.91784424 9.52410645 47.39037598 10.24743164 46.84692383 10.99267578 C46.27868896 11.75821777 45.7104541 12.52375977 45.125 13.3125 C44.25621216 14.49561768 44.25621216 14.49561768 43.36987305 15.70263672 C42.17274202 17.33248737 40.9734209 18.96073153 39.77197266 20.58740234 C38.08389929 22.88576842 36.41872278 25.19870118 34.76171875 27.51953125 C34.01414307 28.56016724 34.01414307 28.56016724 33.25146484 29.62182617 C32.30606682 30.93790876 31.36484662 32.25700446 30.42822266 33.5793457 C29.33433903 35.08952091 28.17346802 36.55079906 27 38 C26.34 38 25.68 38 25 38 C23.73046875 36.2265625 23.73046875 36.2265625 22.1875 33.625 C18.80225568 28.14446762 15.15011088 22.9065522 11.375 17.6875 C10.82481201 16.92324707 10.27462402 16.15899414 9.70776367 15.37158203 C7.27598666 12.02061307 4.83018641 8.76007826 2.1015625 5.64453125 C0 3 0 3 0 0 Z " fill="#F5F7FD" transform="translate(189,159)"/>
<path d="M0 0 C0.99 0 1.98 0 3 0 C3.09889302 4.50229474 3.17147709 9.00395727 3.21972656 13.50708008 C3.2398398 15.03876762 3.2671345 16.57037839 3.30175781 18.10180664 C3.35029315 20.30374073 3.37296996 22.50465982 3.390625 24.70703125 C3.41127014 25.39150833 3.43191528 26.07598541 3.45318604 26.78120422 C3.4547037 29.99832688 3.43192161 31.56713082 1.1081543 33.89599609 C-1.04682785 35.02452293 -3.15504231 35.96956874 -5.4375 36.8125 C-10.87805738 38.8881821 -16.07931634 41.3770727 -21.3125 43.92578125 C-22.199375 44.28027344 -23.08625 44.63476562 -24 45 C-24.66 44.67 -25.32 44.34 -26 44 C-21.76638401 34.91321446 -16.73627254 26.56463658 -11.34521484 18.13476562 C-9.94602032 15.91433787 -8.58835314 13.67247204 -7.23828125 11.421875 C-6.79000977 10.68163086 -6.34173828 9.94138672 -5.87988281 9.17871094 C-5.01561134 7.74936352 -4.15919457 6.31523084 -3.31152344 4.87597656 C-2.28828191 3.19873922 -1.15295311 1.59086374 0 0 Z " fill="#F6F8FD" transform="translate(213,105)"/>
<path d="M0 0 C8.42027892 1.68405578 16.27704714 4.01609941 23.37890625 8.94921875 C25.13680944 10.18485397 25.13680944 10.18485397 28 11 C28.33 10.34 28.66 9.68 29 9 C29 9.99 29 10.98 29 12 C26.8828125 13.60546875 26.8828125 13.60546875 24.125 15.1875 C23.22007812 15.71730469 22.31515625 16.24710938 21.3828125 16.79296875 C19 18 19 18 17 18 C17 18.66 17 19.32 17 20 C15.04414675 21.00484204 13.08523763 22.00373805 11.125 23 C10.03445312 23.556875 8.94390625 24.11375 7.8203125 24.6875 C5 26 5 26 3 26 C2.67 26.99 2.34 27.98 2 29 C1.34 29 0.68 29 0 29 C0 19.43 0 9.86 0 0 Z " fill="#8197EE" transform="translate(216,139)"/>
<path d="M0 0 C-0.61225682 3.18727195 -1.66797129 5.23416808 -3.58984375 7.8359375 C-4.12254883 8.56441895 -4.65525391 9.29290039 -5.20410156 10.04345703 C-5.77612305 10.81286621 -6.34814453 11.58227539 -6.9375 12.375 C-8.11896146 13.98402862 -9.29994508 15.59340821 -10.48046875 17.203125 C-11.07134277 18.00556641 -11.6622168 18.80800781 -12.27099609 19.63476562 C-15.23992304 23.6961839 -18.13295507 27.81190506 -21.01538086 31.93505859 C-21.98601293 33.30750817 -22.98933098 34.65676041 -24 36 C-24.33 36 -24.66 36 -25 36 C-25 28.74 -25 21.48 -25 14 C-25.99 13.67 -26.98 13.34 -28 13 C-27.34 12.67 -26.68 12.34 -26 12 C-25.01 12.33 -24.02 12.66 -23 13 C-23 12.34 -23 11.68 -23 11 C-22.071875 10.731875 -21.14375 10.46375 -20.1875 10.1875 C-16.99611431 8.99855239 -16.27788506 8.30000045 -14 6 C-12.38468123 4.89165941 -10.73563039 3.83147415 -9.0625 2.8125 C-8.20785156 2.28269531 -7.35320312 1.75289062 -6.47265625 1.20703125 C-4 0 -4 0 0 0 Z " fill="#BAC6F5" transform="translate(241,160)"/>
<path d="M0 0 C6.47410297 0.29361011 12.19428537 1.19428537 17 6 C17.46808511 11.38297872 17.46808511 11.38297872 15.625 13.8125 C11.42806084 16.879494 7.01432395 16.20466628 2 16 C-1.125 15.5 -1.125 15.5 -3 15 C-3.14285714 6.42857143 -3.14285714 6.42857143 -2 3 C-1.34 3 -0.68 3 0 3 C0 2.01 0 1.02 0 0 Z " fill="#F79826" transform="translate(111,153)"/>
<path d="M0 0 C9.76076555 1.13875598 9.76076555 1.13875598 12 2 C14.69461986 6.04192978 14.23200889 8.2051496 14 13 C13 14 13 14 9.875 14.1328125 C8.59625 14.13023437 7.3175 14.12765625 6 14.125 C4.72125 14.12757813 3.4425 14.13015625 2.125 14.1328125 C-1 14 -1 14 -2 13 C-2.16796875 11.07421875 -2.16796875 11.07421875 -2.1875 8.6875 C-2.20167969 7.90761719 -2.21585937 7.12773437 -2.23046875 6.32421875 C-1.97984413 3.7967332 -1.26373772 2.18281969 0 0 Z " fill="#F79927" transform="translate(116,132)"/>
<path d="M0 0 C1.43341734 2.86683468 0.52001943 4.4382224 -0.3125 7.5 C-1.74956699 12.97391882 -2.93623147 18.44378752 -4 24 C-4.37351375 25.87529664 -4.74848108 27.75030442 -5.125 29.625 C-5.29257812 30.46289062 -5.46015625 31.30078125 -5.6328125 32.1640625 C-5.75398438 32.76992187 -5.87515625 33.37578125 -6 34 C-8.31 34.66 -10.62 35.32 -13 36 C-12 34 -12 34 -9 33 C-8.16879914 30.61791399 -7.54580895 28.38631312 -6.9921875 25.9375 C-6.82123566 25.23101318 -6.65028381 24.52452637 -6.47415161 23.79663086 C-5.92884485 21.53381242 -5.40128843 19.26731007 -4.875 17 C-4.33836911 14.73358572 -3.79812853 12.46809688 -3.25442505 10.20336914 C-2.91679163 8.7922485 -2.58389149 7.37998573 -2.256073 5.96655273 C-1.11000109 1.11000109 -1.11000109 1.11000109 0 0 Z " fill="#D3D0D0" transform="translate(295,118)"/>
<path d="M0 0 C0.99 0 1.98 0 3 0 C3 10.56 3 21.12 3 32 C2.67 32 2.34 32 2 32 C1.67 22.76 1.34 13.52 1 4 C0.01 4.33 -0.98 4.66 -2 5 C-1.34 3.35 -0.68 1.7 0 0 Z " fill="#DFE4FA" transform="translate(213,105)"/>
<path d="M0 0 C1.43836751 0.11458693 2.87570966 0.24209116 4.3125 0.375 C5.51326172 0.47941406 5.51326172 0.47941406 6.73828125 0.5859375 C9 1 9 1 12 3 C12.36328125 5.3125 12.36328125 5.3125 12.3125 8 C12.30863281 8.886875 12.30476563 9.77375 12.30078125 10.6875 C12 13 12 13 10 15 C9.875 7.375 9.875 7.375 11 4 C9.9275 3.896875 8.855 3.79375 7.75 3.6875 C4.14179128 3.02599507 2.63604977 2.42516579 0 0 Z " fill="#F9B665" transform="translate(85,170)"/>
<path d="M0 0 C-1.3937282 4.43458973 -3.60582235 6.87378374 -7 10 C-6.690625 9.401875 -6.38125 8.80375 -6.0625 8.1875 C-4.89790296 5.91043228 -4.89790296 5.91043228 -4 3 C-4.66 2.67 -5.32 2.34 -6 2 C-3 0 -3 0 0 0 Z " fill="#8CA0EF" transform="translate(245,157)"/>
<path d="M0 0 C0.33 0.66 0.66 1.32 1 2 C-0.175625 2.86625 -0.175625 2.86625 -1.375 3.75 C-3.80047244 5.82897637 -4.85694417 7.09040333 -6 10 C-6.85178626 7.61499846 -7.09806909 6.3334349 -6.375 3.875 C-4.58752966 1.43754045 -2.8367466 0.89581472 0 0 Z " fill="#D9D6D6" transform="translate(313,150)"/>
<path d="M0 0 C0 3 0 3 -1.53125 4.82421875 C-2.1809375 5.43910156 -2.830625 6.05398437 -3.5 6.6875 C-4.1496875 7.31011719 -4.799375 7.93273437 -5.46875 8.57421875 C-5.9740625 9.04472656 -6.479375 9.51523438 -7 10 C-7.33 9.01 -7.66 8.02 -8 7 C-5.36 4.69 -2.72 2.38 0 0 Z " fill="#5989EC" transform="translate(173,98)"/>
<path d="M0 0 C1.45606519 4.52092968 0.27032841 7.51648796 -1 12 C-1.33 12 -1.66 12 -2 12 C-2.05422947 10.5629191 -2.09289723 9.12524538 -2.125 7.6875 C-2.14820312 6.88699219 -2.17140625 6.08648437 -2.1953125 5.26171875 C-2 3 -2 3 0 0 Z " fill="#F9BD74" transform="translate(100,141)"/>
</svg>
